<svg width="405" height="90" viewBox="0 0 405 90" fill="none" xmlns="http://www.w3.org/2000/svg">
<path d="M346.665 3.97652H270.333C268.836 3.97652 267.342 3.92574 265.845 3.86225C263.48 3.76067 258.341 4.27364 258.503 10.6959L258.295 76.5461H268.798C268.798 76.5461 270.318 65.5173 282.223 65.3472C282.223 65.3472 294.307 65.7941 294.754 76.5461H363.672C363.672 76.5461 365.281 65.822 375.756 64.4507C375.756 64.4507 388.74 61.9545 390.973 76.5461H404.398V51.9084L389.631 43.8457L379.663 17.8647L353.918 16.9683V9.57345C353.918 9.57345 355.331 3.97652 346.667 3.97652H346.665Z" fill="#C6C6C6"/>
<path d="M282.041 90C287.831 90 292.524 85.3021 292.524 79.507C292.524 73.7119 287.831 69.014 282.041 69.014C276.252 69.014 271.559 73.7119 271.559 79.507C271.559 85.3021 276.252 90 282.041 90Z" fill="#C6C6C6"/>
<path d="M282.042 84.2202C284.642 84.2202 286.75 82.1101 286.75 79.507C286.75 76.904 284.642 74.7938 282.042 74.7938C279.441 74.7938 277.333 76.904 277.333 79.507C277.333 82.1101 279.441 84.2202 282.042 84.2202Z" fill="white"/>
<path d="M377.577 90C383.367 90 388.06 85.3021 388.06 79.507C388.06 73.7119 383.367 69.014 377.577 69.014C371.788 69.014 367.095 73.7119 367.095 79.507C367.095 85.3021 371.788 90 377.577 90Z" fill="#C6C6C6"/>
<path d="M377.578 84.2202C380.178 84.2202 382.286 82.1101 382.286 79.507C382.286 76.904 380.178 74.7938 377.578 74.7938C374.977 74.7938 372.869 76.904 372.869 79.507C372.869 82.1101 374.977 84.2202 377.578 84.2202Z" fill="white"/>
<path d="M359.206 21.585L358.219 44.5151L383.94 45.6249L374.48 22.244L359.206 21.585Z" fill="white"/>
<path d="M259.353 8.84961H246.841V12.3997H259.353V8.84961Z" fill="#C6C6C6"/>
<path d="M258.901 65.1007H246.389V68.6508H258.901V65.1007Z" fill="#C6C6C6"/>
<path d="M246.841 68.5951C246.841 68.5951 217.001 80.0479 181.479 79.7457C165.001 79.6061 148.709 76.2083 133.49 69.8902C115.789 62.5461 67.0365 48.3049 0 76.9066V17.1181C67.0365 -11.4836 115.789 2.75753 133.487 10.1041C148.706 16.4223 165.001 19.82 181.476 19.9597C216.999 20.2619 246.838 8.80902 246.838 8.80902V68.5976L246.841 68.5951Z" fill="#C6C6C6"/>
<rect x="42.3359" y="15.7969" width="74.5614" height="37.7985" fill="#D9D9D9"/>
<path d="M63.9869 35H63.1062C63.0541 34.7467 62.963 34.5241 62.8327 34.3324C62.7049 34.1406 62.5487 33.9796 62.364 33.8494C62.1817 33.7169 61.9793 33.6174 61.7567 33.5511C61.5342 33.4848 61.3022 33.4517 61.0607 33.4517C60.6204 33.4517 60.2215 33.563 59.864 33.7855C59.5089 34.008 59.226 34.3359 59.0153 34.7692C58.8069 35.2024 58.7028 35.7339 58.7028 36.3636C58.7028 36.9934 58.8069 37.5249 59.0153 37.9581C59.226 38.3913 59.5089 38.7192 59.864 38.9418C60.2215 39.1643 60.6204 39.2756 61.0607 39.2756C61.3022 39.2756 61.5342 39.2424 61.7567 39.1761C61.9793 39.1098 62.1817 39.0116 62.364 38.8814C62.5487 38.7488 62.7049 38.5866 62.8327 38.3949C62.963 38.2008 63.0541 37.9782 63.1062 37.7273H63.9869C63.9206 38.099 63.7998 38.4316 63.6246 38.7251C63.4495 39.0187 63.2317 39.2685 62.9712 39.4744C62.7108 39.678 62.4184 39.8331 62.0941 39.9396C61.7721 40.0462 61.4277 40.0994 61.0607 40.0994C60.4405 40.0994 59.8888 39.9479 59.4059 39.6449C58.9229 39.3419 58.543 38.911 58.266 38.3523C57.989 37.7936 57.8505 37.1307 57.8505 36.3636C57.8505 35.5966 57.989 34.9337 58.266 34.375C58.543 33.8163 58.9229 33.3854 59.4059 33.0824C59.8888 32.7794 60.4405 32.6278 61.0607 32.6278C61.4277 32.6278 61.7721 32.6811 62.0941 32.7876C62.4184 32.8942 62.7108 33.0504 62.9712 33.2564C63.2317 33.46 63.4495 33.7086 63.6246 34.0021C63.7998 34.2933 63.9206 34.6259 63.9869 35ZM67.5123 40.1136C67.0198 40.1136 66.5878 39.9964 66.2161 39.7621C65.8468 39.5277 65.5579 39.1998 65.3496 38.7784C65.1436 38.357 65.0407 37.8646 65.0407 37.3011C65.0407 36.733 65.1436 36.237 65.3496 35.8132C65.5579 35.3894 65.8468 35.0604 66.2161 34.826C66.5878 34.5916 67.0198 34.4744 67.5123 34.4744C68.0047 34.4744 68.4355 34.5916 68.8049 34.826C69.1766 35.0604 69.4654 35.3894 69.6713 35.8132C69.8797 36.237 69.9838 36.733 69.9838 37.3011C69.9838 37.8646 69.8797 38.357 69.6713 38.7784C69.4654 39.1998 69.1766 39.5277 68.8049 39.7621C68.4355 39.9964 68.0047 40.1136 67.5123 40.1136ZM67.5123 39.3608C67.8863 39.3608 68.1941 39.2649 68.4355 39.0732C68.677 38.8814 68.8558 38.6293 68.9718 38.3168C69.0878 38.0043 69.1458 37.6657 69.1458 37.3011C69.1458 36.9366 69.0878 36.5968 68.9718 36.282C68.8558 35.9671 68.677 35.7126 68.4355 35.5185C68.1941 35.3243 67.8863 35.2273 67.5123 35.2273C67.1382 35.2273 66.8304 35.3243 66.589 35.5185C66.3475 35.7126 66.1687 35.9671 66.0527 36.282C65.9367 36.5968 65.8787 36.9366 65.8787 37.3011C65.8787 37.6657 65.9367 38.0043 66.0527 38.3168C66.1687 38.6293 66.3475 38.8814 66.589 39.0732C66.8304 39.2649 67.1382 39.3608 67.5123 39.3608ZM72.1012 32.7273V40H71.2631V32.7273H72.1012ZM75.8521 40.1136C75.3597 40.1136 74.9276 39.9964 74.5559 39.7621C74.1866 39.5277 73.8978 39.1998 73.6895 38.7784C73.4835 38.357 73.3805 37.8646 73.3805 37.3011C73.3805 36.733 73.4835 36.237 73.6895 35.8132C73.8978 35.3894 74.1866 35.0604 74.5559 34.826C74.9276 34.5916 75.3597 34.4744 75.8521 34.4744C76.3445 34.4744 76.7754 34.5916 77.1447 34.826C77.5164 35.0604 77.8052 35.3894 78.0112 35.8132C78.2195 36.237 78.3237 36.733 78.3237 37.3011C78.3237 37.8646 78.2195 38.357 78.0112 38.7784C77.8052 39.1998 77.5164 39.5277 77.1447 39.7621C76.7754 39.9964 76.3445 40.1136 75.8521 40.1136ZM75.8521 39.3608C76.2261 39.3608 76.5339 39.2649 76.7754 39.0732C77.0169 38.8814 77.1956 38.6293 77.3116 38.3168C77.4276 38.0043 77.4856 37.6657 77.4856 37.3011C77.4856 36.9366 77.4276 36.5968 77.3116 36.282C77.1956 35.9671 77.0169 35.7126 76.7754 35.5185C76.5339 35.3243 76.2261 35.2273 75.8521 35.2273C75.478 35.2273 75.1703 35.3243 74.9288 35.5185C74.6873 35.7126 74.5086 35.9671 74.3926 36.282C74.2766 36.5968 74.2186 36.9366 74.2186 37.3011C74.2186 37.6657 74.2766 38.0043 74.3926 38.3168C74.5086 38.6293 74.6873 38.8814 74.9288 39.0732C75.1703 39.2649 75.478 39.3608 75.8521 39.3608ZM79.603 40V34.5455H80.4126V35.3977H80.4837C80.5973 35.1065 80.7808 34.8804 81.0341 34.7195C81.2874 34.5561 81.5916 34.4744 81.9467 34.4744C82.3066 34.4744 82.6061 34.5561 82.8452 34.7195C83.0866 34.8804 83.2749 35.1065 83.4098 35.3977H83.4666C83.6063 35.116 83.8158 34.8923 84.0952 34.7266C84.3745 34.5585 84.7095 34.4744 85.1001 34.4744C85.5878 34.4744 85.9867 34.6271 86.2969 34.9325C86.607 35.2356 86.7621 35.7079 86.7621 36.3494V40H85.924V36.3494C85.924 35.947 85.8139 35.6593 85.5938 35.4865C85.3736 35.3137 85.1143 35.2273 84.8161 35.2273C84.4325 35.2273 84.1354 35.3433 83.9247 35.5753C83.714 35.8049 83.6087 36.0961 83.6087 36.4489V40H82.7564V36.2642C82.7564 35.9541 82.6558 35.7043 82.4545 35.5149C82.2533 35.3232 81.9941 35.2273 81.6768 35.2273C81.459 35.2273 81.2554 35.2853 81.0661 35.4013C80.879 35.5173 80.7275 35.6783 80.6115 35.8842C80.4979 36.0878 80.4411 36.3234 80.4411 36.5909V40H79.603ZM88.408 40V32.7273H89.2461V35.4119H89.3171C89.3787 35.3172 89.4639 35.1965 89.5728 35.0497C89.6841 34.9006 89.8427 34.768 90.0487 34.652C90.257 34.5336 90.5387 34.4744 90.8938 34.4744C91.3531 34.4744 91.7579 34.5893 92.1083 34.8189C92.4587 35.0485 92.7321 35.3741 92.9286 35.7955C93.1251 36.2169 93.2234 36.714 93.2234 37.2869C93.2234 37.8646 93.1251 38.3653 92.9286 38.7891C92.7321 39.2105 92.4599 39.5372 92.1119 39.7692C91.7638 39.9988 91.3626 40.1136 90.908 40.1136C90.5576 40.1136 90.2771 40.0556 90.0664 39.9396C89.8557 39.8213 89.6935 39.6875 89.5799 39.5384C89.4663 39.3868 89.3787 39.2614 89.3171 39.1619H89.2177V40H88.408ZM89.2319 37.2727C89.2319 37.6847 89.2923 38.0481 89.413 38.3629C89.5337 38.6754 89.7101 38.9205 89.9421 39.098C90.1741 39.2732 90.4582 39.3608 90.7944 39.3608C91.1448 39.3608 91.4371 39.2685 91.6715 39.0838C91.9083 38.8968 92.0858 38.6458 92.2042 38.331C92.3249 38.0137 92.3853 37.661 92.3853 37.2727C92.3853 36.8892 92.3261 36.5436 92.2077 36.2358C92.0917 35.9257 91.9154 35.6806 91.6786 35.5007C91.4442 35.3184 91.1495 35.2273 90.7944 35.2273C90.4535 35.2273 90.167 35.3137 89.935 35.4865C89.703 35.657 89.5278 35.8961 89.4094 36.2038C89.2911 36.5092 89.2319 36.8655 89.2319 37.2727ZM94.5053 40V34.5455H95.3434V40H94.5053ZM94.9315 33.6364C94.7681 33.6364 94.6272 33.5807 94.5089 33.4695C94.3929 33.3582 94.3349 33.2244 94.3349 33.0682C94.3349 32.9119 94.3929 32.7782 94.5089 32.6669C94.6272 32.5556 94.7681 32.5 94.9315 32.5C95.0948 32.5 95.2345 32.5556 95.3505 32.6669C95.4689 32.7782 95.5281 32.9119 95.5281 33.0682C95.5281 33.2244 95.4689 33.3582 95.3505 33.4695C95.2345 33.5807 95.0948 33.6364 94.9315 33.6364ZM98.4835 40.1278C98.1378 40.1278 97.8242 40.0627 97.5424 39.9325C97.2607 39.8 97.037 39.6094 96.8713 39.3608C96.7056 39.1098 96.6227 38.8068 96.6227 38.4517C96.6227 38.1392 96.6842 37.8859 96.8074 37.6918C96.9305 37.4953 97.095 37.3414 97.301 37.2301C97.5069 37.1188 97.7342 37.036 97.9828 36.9815C98.2337 36.9247 98.4859 36.8797 98.7392 36.8466C99.0706 36.804 99.3393 36.772 99.5453 36.7507C99.7536 36.727 99.9051 36.688 99.9998 36.6335C100.097 36.5791 100.145 36.4844 100.145 36.3494V36.321C100.145 35.9706 100.05 35.6984 99.8578 35.5043C99.6684 35.3101 99.3807 35.2131 98.9949 35.2131C98.5948 35.2131 98.2811 35.3007 98.0538 35.4759C97.8265 35.651 97.6667 35.8381 97.5744 36.0369L96.7789 35.7528C96.921 35.4214 97.1104 35.1634 97.3471 34.9787C97.5862 34.7917 97.8467 34.6615 98.1284 34.5881C98.4125 34.5123 98.6918 34.4744 98.9664 34.4744C99.1416 34.4744 99.3429 34.4957 99.5701 34.5384C99.7998 34.5786 100.021 34.6626 100.234 34.7905C100.45 34.9183 100.628 35.1113 100.77 35.3693C100.912 35.6274 100.983 35.973 100.983 36.4062V40H100.145V39.2614H100.103C100.046 39.3797 99.9513 39.5064 99.8187 39.6413C99.6861 39.7763 99.5098 39.8911 99.2896 39.9858C99.0694 40.0805 98.8007 40.1278 98.4835 40.1278ZM98.6113 39.375C98.9428 39.375 99.2221 39.3099 99.4494 39.1797C99.679 39.0495 99.8519 38.8814 99.9679 38.6754C100.086 38.4695 100.145 38.2528 100.145 38.0256V37.2585C100.11 37.3011 100.032 37.3402 99.911 37.3757C99.7927 37.4089 99.6554 37.4384 99.4991 37.4645C99.3452 37.4882 99.1949 37.5095 99.0481 37.5284C98.9037 37.545 98.7865 37.5592 98.6966 37.571C98.4788 37.5994 98.2752 37.6456 98.0858 37.7095C97.8987 37.7711 97.7472 37.8646 97.6312 37.9901C97.5176 38.1132 97.4608 38.2812 97.4608 38.4943C97.4608 38.7855 97.5685 39.0057 97.7839 39.1548C98.0017 39.3016 98.2775 39.375 98.6113 39.375Z" fill="black"/>
</svg>
